<svg width="100" height="100" viewBox="0 0 100 100" fill="none" xmlns="http://www.w3.org/2000/svg">
<path d="M40.6676 83.0001L17.6676 86.0001L14.1676 69.5001L31.6676 66.5001L40.6676 83.0001Z" fill="#9EA3B5"/>
<path d="M90.6677 81.5001L69.6677 84.0001L66.1677 67.5001L81.6677 65.0001L90.6677 81.5001Z" fill="#9EA3B5"/>
<path d="M41.1934 72.881L40.1676 73.0002L48.6676 88.0002L65.1676 87.0002L61.7004 70.6552C60.9375 71.3456 60.2018 71.9887 59.5051 72.5816C54.201 77.0953 46.5992 77.1951 41.1934 72.881Z" fill="#9EA3B5"/>
<path fill-rule="evenodd" clip-rule="evenodd" d="M56.2647 68.7737C63.9496 62.234 76.1677 49.6416 76.1677 35.6821C76.1677 28.7382 73.4284 22.0788 68.5525 17.1687C63.6765 12.2587 57.0633 9.50024 50.1677 9.50024C43.2721 9.50024 36.6589 12.2587 31.7829 17.1687C26.907 22.0788 24.1677 28.7382 24.1677 35.6821C24.1677 49.6416 36.3858 62.234 44.0707 68.7737C47.6268 71.8 52.7086 71.8 56.2647 68.7737ZM62.1677 35.5002C62.1677 42.1277 56.7951 47.5002 50.1677 47.5002C43.5403 47.5002 38.1677 42.1277 38.1677 35.5002C38.1677 28.8728 43.5403 23.5002 50.1677 23.5002C56.7951 23.5002 62.1677 28.8728 62.1677 35.5002Z" fill="#9EA3B5"/>
</svg>
