<svg width="25" height="24" viewBox="0 0 25 24" fill="none" xmlns="http://www.w3.org/2000/svg">
<path d="M22.4999 16.9199V19.9199C22.5011 20.1984 22.444 20.474 22.3325 20.7292C22.2209 20.9844 22.0572 21.2134 21.852 21.4017C21.6468 21.59 21.4045 21.7333 21.1407 21.8226C20.8769 21.9118 20.5973 21.9449 20.3199 21.9199C17.2428 21.5855 14.2869 20.534 11.6899 18.8499C9.27376 17.3145 7.22527 15.266 5.68993 12.8499C3.99991 10.2411 2.94818 7.27085 2.61993 4.17985C2.59494 3.90332 2.62781 3.62461 2.71643 3.36148C2.80506 3.09834 2.9475 2.85654 3.1347 2.65147C3.32189 2.44641 3.54974 2.28256 3.80372 2.17037C4.05771 2.05819 4.33227 2.00011 4.60993 1.99985H7.60994C8.09524 1.99508 8.56573 2.16693 8.9337 2.48339C9.30167 2.79984 9.54201 3.2393 9.60994 3.71985C9.73656 4.67992 9.97139 5.62258 10.3099 6.52985C10.4445 6.88778 10.4736 7.27677 10.3938 7.65073C10.3141 8.0247 10.1288 8.36796 9.85994 8.63985L8.58994 9.90985C10.0135 12.4134 12.0864 14.4863 14.5899 15.9099L15.8599 14.6399C16.1318 14.371 16.4751 14.1857 16.8491 14.1059C17.223 14.0262 17.612 14.0553 17.9699 14.1899C18.8772 14.5284 19.8199 14.7632 20.7799 14.8899C21.2657 14.9584 21.7093 15.2031 22.0265 15.5773C22.3436 15.9516 22.5121 16.4294 22.4999 16.9199Z" fill="#15B2F5"/>
</svg>
