<svg width="37" height="36" viewBox="0 0 37 36" fill="none" xmlns="http://www.w3.org/2000/svg">
<path d="M16.6517 6.02155C17.2675 4.12628 19.9488 4.12628 20.5646 6.02155L22.1875 11.0164C22.4629 11.864 23.2528 12.4379 24.144 12.4379H29.3959C31.3887 12.4379 32.2173 14.9879 30.6051 16.1593L26.3562 19.2463C25.6352 19.7701 25.3335 20.6987 25.6089 21.5462L27.2318 26.5411C27.8476 28.4364 25.6784 30.0124 24.0662 28.8411L19.8173 25.7541C19.0963 25.2302 18.12 25.2302 17.399 25.7541L13.1501 28.8411C11.5379 30.0124 9.36866 28.4364 9.98447 26.5411L11.6074 21.5462C11.8828 20.6987 11.5811 19.7701 10.8601 19.2463L6.61121 16.1593C4.99899 14.9879 5.82756 12.4379 7.82036 12.4379H13.0723C13.9635 12.4379 14.7534 11.864 15.0287 11.0164L16.6517 6.02155Z" fill="#E3E6F0"/>
</svg>
